<!--?xml version="1.0" standalone="no"?-->
              <svg id="sw-js-blob-svg" viewBox="0 0 100 100" xmlns="http://www.w3.org/2000/svg" version="1.1">
                    <defs> 
                        <linearGradient id="sw-gradient" x1="0" x2="1" y1="1" y2="0">
                            <stop id="stop1" stop-color="rgba(126, 126, 126, 1)" offset="0%"></stop>
                            <stop id="stop2" stop-color="rgba(126, 126, 126, 1)" offset="100%"></stop>
                        </linearGradient>
                    </defs>
                <path fill="url(#sw-gradient)" d="M19.4,-23.1C27,-16.7,36.4,-12.4,37.2,-6.7C38,-1.1,30.2,6,24.5,12.5C18.8,19.1,15.1,25.3,9.6,27.9C4.2,30.5,-3.1,29.5,-11,27.7C-18.8,25.9,-27.2,23.2,-32.5,17.2C-37.8,11.2,-40,1.9,-37.6,-5.7C-35.1,-13.3,-28.1,-19.2,-21,-25.7C-14,-32.2,-7,-39.3,-0.6,-38.6C5.9,-38,11.8,-29.5,19.4,-23.1Z" width="100%" height="100%" transform="translate(50 50)" style="transition: all 0.3s ease 0s;" stroke-width="0" stroke="url(#sw-gradient)"></path>
              </svg>